<?xml version="1.0" standalone="no"?>
<!DOCTYPE svg PUBLIC "-//W3C//DTD SVG 20010904//EN"
 "http://www.w3.org/TR/2001/REC-SVG-20010904/DTD/svg10.dtd">
<svg version="1.0" xmlns="http://www.w3.org/2000/svg"
 width="700.000000pt" height="700.000000pt" viewBox="0 0 700.000000 700.000000"
 preserveAspectRatio="xMidYMid meet">
<metadata>
Created by potrace 1.14, written by Peter Selinger 2001-2017
</metadata>
<g transform="translate(0.000000,700.000000) scale(0.100000,-0.100000)"
fill="#000000" stroke="none">
<path d="M4424 6981 c-19 -12 -36 -33 -42 -53 -6 -18 -27 -154 -48 -303 l-37
-270 -85 -40 c-48 -22 -128 -68 -179 -102 l-92 -62 -276 110 c-292 117 -301
119 -349 76 -14 -12 -122 -191 -240 -397 -221 -383 -232 -406 -203 -456 7 -12
113 -100 237 -196 l225 -175 -1 -211 -1 -212 -224 -176 c-123 -96 -229 -185
-236 -197 -29 -51 -19 -73 208 -466 135 -234 231 -388 246 -398 48 -32 59 -28
575 184 l37 15 103 -69 c57 -37 137 -84 179 -103 l76 -35 37 -270 c21 -148 42
-285 48 -303 6 -20 23 -41 42 -53 29 -18 55 -19 476 -19 423 0 447 1 477 20
21 13 35 32 43 57 8 30 80 527 80 555 0 4 40 28 88 52 48 24 130 72 180 106
l93 62 265 -108 c146 -59 279 -107 295 -107 61 0 53 -13 430 642 91 159 102
192 76 238 -7 12 -113 102 -237 199 -195 154 -225 181 -223 203 5 74 3 325 -2
354 l-7 34 228 177 c126 97 234 187 241 199 17 31 16 72 -3 110 -47 91 -419
725 -436 743 -41 45 -61 41 -353 -76 l-275 -110 -81 56 c-44 30 -125 77 -180
104 -54 28 -99 54 -99 58 0 28 -72 525 -80 555 -8 25 -22 44 -43 57 -30 19
-54 20 -477 20 -421 0 -447 -1 -476 -19z m660 -1371 c128 -32 228 -91 332
-195 149 -148 215 -306 215 -515 0 -208 -66 -366 -215 -516 -150 -150 -305
-214 -516 -214 -211 0 -365 64 -516 215 -78 77 -98 105 -137 185 -59 121 -77
198 -77 330 0 132 18 209 77 330 39 80 59 108 137 185 103 103 203 162 328
195 102 26 269 27 372 0z"/>
<path d="M1230 3840 c-313 -40 -598 -181 -820 -404 -198 -199 -319 -422 -381
-707 -33 -147 -33 -407 -1 -556 41 -189 105 -341 210 -503 72 -109 269 -308
377 -379 161 -106 342 -180 531 -218 123 -24 385 -24 508 0 280 56 508 174
709 367 128 123 213 237 286 385 109 220 145 378 145 625 0 238 -36 402 -134
605 -69 143 -139 243 -248 357 -208 216 -443 348 -730 408 -110 23 -348 34
-452 20z"/>
<path d="M4587 1740 c-337 -57 -602 -293 -704 -627 -23 -78 -26 -104 -26 -233
0 -173 18 -254 89 -396 168 -340 550 -535 922 -470 188 33 340 112 473 245
134 135 212 286 245 473 71 405 -160 807 -550 959 -132 51 -315 71 -449 49z"/>
</g>
</svg>
