<?xml version="1.0" standalone="no"?>
<!DOCTYPE svg PUBLIC "-//W3C//DTD SVG 20010904//EN"
 "http://www.w3.org/TR/2001/REC-SVG-20010904/DTD/svg10.dtd">
<svg version="1.0" xmlns="http://www.w3.org/2000/svg"
 width="700.000000pt" height="700.000000pt" viewBox="0 0 700.000000 700.000000"
 preserveAspectRatio="xMidYMid meet">
<metadata>
Created by potrace 1.14, written by Peter Selinger 2001-2017
</metadata>
<g transform="translate(0.000000,700.000000) scale(0.100000,-0.100000)"
fill="#000000" stroke="none">
<path d="M0 5835 l0 -1165 3500 0 3500 0 0 1165 0 1165 -3500 0 -3500 0 0
-1165z m6220 -5 l0 -390 -2720 0 -2720 0 0 390 0 390 2720 0 2720 0 0 -390z"/>
<path d="M390 2140 l0 -2140 3110 0 3110 0 0 2140 0 2140 -390 0 -390 0 0
-1750 0 -1750 -2330 0 -2330 0 0 1750 0 1750 -390 0 -390 0 0 -2140z"/>
<path d="M2468 3880 c-45 -13 -87 -49 -111 -93 -21 -41 -22 -53 -25 -359 l-3
-318 1171 0 1171 0 -3 318 c-3 307 -4 318 -26 359 -12 24 -41 55 -64 70 l-42
28 -1020 2 c-562 1 -1033 -2 -1048 -7z"/>
</g>
</svg>
